<svg width="24" height="26" viewBox="0 0 24 26" fill="none" xmlns="http://www.w3.org/2000/svg">
<path d="M8 2.95264V5.99845" stroke="#786158" stroke-width="1.5" stroke-miterlimit="10" stroke-linecap="round" stroke-linejoin="round"/>
<path d="M16 2.95264V5.99845" stroke="#786158" stroke-width="1.5" stroke-miterlimit="10" stroke-linecap="round" stroke-linejoin="round"/>
<path d="M18.2 22.6486C19.9673 22.6486 21.4 21.1941 21.4 19.3998C21.4 17.6055 19.9673 16.1509 18.2 16.1509C16.4327 16.1509 15 17.6055 15 19.3998C15 21.1941 16.4327 22.6486 18.2 22.6486Z" stroke="#786158" stroke-width="1.5" stroke-linecap="round" stroke-linejoin="round"/>
<path d="M22 23.2579L21 22.2427" stroke="#786158" stroke-width="1.5" stroke-linecap="round" stroke-linejoin="round"/>
<path d="M3.5 10.1509H20.5" stroke="#786158" stroke-width="1.5" stroke-miterlimit="10" stroke-linecap="round" stroke-linejoin="round"/>
<path d="M13.37 23.2576H8C4.5 23.2576 3 21.2271 3 18.1812V9.55145C3 6.50564 4.5 4.4751 8 4.4751H16C19.5 4.4751 21 6.50564 21 9.55145V14.1202" stroke="#786158" stroke-width="1.5" stroke-miterlimit="10" stroke-linecap="round" stroke-linejoin="round"/>
<path d="M11.9955 14.8309H12.0045" stroke="#786158" stroke-width="2" stroke-linecap="round" stroke-linejoin="round"/>
<path d="M8.29431 14.8309H8.30329" stroke="#786158" stroke-width="2" stroke-linecap="round" stroke-linejoin="round"/>
<path d="M8.29431 17.8768H8.30329" stroke="#786158" stroke-width="2" stroke-linecap="round" stroke-linejoin="round"/>
</svg>
