<svg width="86" height="86" viewBox="0 0 86 86" fill="none" xmlns="http://www.w3.org/2000/svg">
<rect width="86" height="86" rx="43" fill="#786158" fill-opacity="0.08"/>
<g clip-path="url(#clip0_511_525)">
<path d="M36.9027 54.6927C36.0524 54.4175 35.2724 53.9602 34.617 53.3527C33.9616 52.7452 33.4465 52.0021 33.1077 51.1752C32.9857 50.8891 32.7863 50.6427 32.5319 50.4638C32.2775 50.2849 31.9782 50.1806 31.6677 50.1627C30.7718 50.1011 29.8997 49.8479 29.1102 49.4202L24.2352 62.2452C24.1836 62.3791 24.1715 62.5251 24.2004 62.6657C24.2294 62.8064 24.2981 62.9357 24.3984 63.0384C24.4988 63.1411 24.6265 63.2128 24.7664 63.2451C24.9063 63.2773 25.0525 63.2686 25.1877 63.2202L31.0902 61.0977L34.0902 66.6102C34.156 66.7276 34.2517 66.8256 34.3676 66.894C34.4836 66.9625 34.6155 66.9992 34.7502 67.0002H34.8027C34.9449 66.9905 35.0813 66.94 35.1957 66.8549C35.3101 66.7698 35.3975 66.6536 35.4477 66.5202L39.8652 54.9102C39.526 54.9702 39.1821 55.0003 38.8377 55.0002C38.1806 54.9994 37.5276 54.8956 36.9027 54.6927Z" fill="#786158"/>
<path d="M61.7653 62.2452L56.8903 49.4202C56.1034 49.8478 55.2337 50.1011 54.3403 50.1627C54.0285 50.1795 53.7277 50.2832 53.4719 50.4621C53.216 50.6411 53.0154 50.8881 52.8928 51.1752C52.5539 52.0021 52.0389 52.7452 51.3834 53.3527C50.728 53.9602 49.948 54.4175 49.0978 54.6927C48.4728 54.8956 47.8199 54.9994 47.1628 55.0002C46.8183 55.0003 46.4745 54.9702 46.1353 54.9102L50.5528 66.5202C50.6029 66.6536 50.6904 66.7698 50.8047 66.8549C50.9191 66.94 51.0555 66.9905 51.1978 67.0002H51.2503C51.3849 66.9992 51.5169 66.9625 51.6328 66.894C51.7487 66.8256 51.8444 66.7276 51.9103 66.6102L54.9103 61.0977L60.8128 63.2202C60.9479 63.2686 61.0941 63.2773 61.234 63.2451C61.3739 63.2128 61.5016 63.1411 61.602 63.0384C61.7023 62.9357 61.771 62.8064 61.8 62.6657C61.8289 62.5251 61.8169 62.3791 61.7653 62.2452Z" fill="#786158"/>
<path d="M43 25.75C40.9233 25.75 38.8932 26.3658 37.1665 27.5196C35.4398 28.6733 34.094 30.3132 33.2993 32.2318C32.5045 34.1504 32.2966 36.2616 32.7018 38.2984C33.1069 40.3352 34.1069 42.2062 35.5754 43.6746C37.0438 45.1431 38.9148 46.1431 40.9516 46.5482C42.9884 46.9534 45.0996 46.7455 47.0182 45.9507C48.9368 45.156 50.5767 43.8102 51.7304 42.0835C52.8842 40.3568 53.5 38.3267 53.5 36.25C53.4969 33.4662 52.3896 30.7973 50.4212 28.8288C48.4527 26.8604 45.7838 25.7531 43 25.75ZM49.3809 35.0425L46.7339 37.6217L47.3586 41.2638C47.3822 41.4016 47.3668 41.5433 47.3141 41.6728C47.2614 41.8023 47.1735 41.9145 47.0604 41.9968C46.9473 42.079 46.8134 42.128 46.674 42.1382C46.5345 42.1483 46.395 42.1193 46.2711 42.0544L43 40.3351L39.729 42.0545C39.6052 42.1194 39.4656 42.1484 39.3262 42.1382C39.1867 42.128 39.0529 42.0791 38.9398 41.9968C38.8267 41.9146 38.7388 41.8024 38.6861 41.6729C38.6334 41.5433 38.618 41.4017 38.6415 41.2638L39.2663 37.6218L36.6192 35.0425C36.5189 34.9448 36.4479 34.821 36.4144 34.6851C36.3808 34.5491 36.386 34.4065 36.4293 34.2734C36.4726 34.1402 36.5522 34.0219 36.6593 33.9317C36.7664 33.8415 36.8966 33.783 37.0352 33.763L40.6922 33.2316L42.3276 29.9181C42.3966 29.8012 42.4949 29.7042 42.6129 29.6369C42.7308 29.5696 42.8642 29.5341 43 29.5341C43.1358 29.5341 43.2692 29.5696 43.3872 29.6369C43.5051 29.7042 43.6034 29.8012 43.6724 29.9181L45.3078 33.2316L48.9648 33.763C49.1034 33.783 49.2336 33.8415 49.3407 33.9317C49.4478 34.0219 49.5275 34.1402 49.5707 34.2734C49.614 34.4065 49.6192 34.5491 49.5856 34.6851C49.5521 34.821 49.4811 34.9448 49.3809 35.0425Z" fill="#786158"/>
<path d="M44.1375 34.2491L43 31.9451L41.8626 34.2491C41.8089 34.3582 41.7294 34.4526 41.631 34.5241C41.5326 34.5957 41.4183 34.6422 41.2979 34.6596L38.7549 35.0291L40.5955 36.8228C40.6824 36.9078 40.7475 37.0126 40.785 37.1282C40.8225 37.2439 40.8314 37.3669 40.8109 37.4867L40.3765 40.0195L42.6514 38.8238C42.759 38.7672 42.8787 38.7377 43.0002 38.7377C43.1217 38.7377 43.2414 38.7672 43.3489 38.8238L45.6238 40.0195L45.1895 37.4867C45.169 37.3669 45.1779 37.2439 45.2154 37.1282C45.2529 37.0126 45.3179 36.9078 45.4049 36.8228L47.245 35.0291L44.7025 34.6596C44.5821 34.6422 44.4677 34.5957 44.3692 34.5242C44.2708 34.4527 44.1912 34.3582 44.1375 34.2491Z" fill="#786158"/>
<path d="M48.6331 53.2665C49.2758 53.0591 49.8656 52.7142 50.3614 52.2555C50.8571 51.7969 51.2469 51.2357 51.5035 50.611C51.7329 50.0643 52.1103 49.5923 52.5931 49.2481C53.0759 48.9039 53.6452 48.7012 54.2368 48.6626C54.922 48.6182 55.589 48.4233 56.1903 48.0918C56.7916 47.7603 57.3125 47.3004 57.7159 46.7448C58.1109 46.2019 58.3812 45.5786 58.5077 44.9192C58.6342 44.2599 58.6137 43.5807 58.4476 42.9303C58.3072 42.3615 58.3308 41.7645 58.5156 41.2086C58.7005 40.6527 59.039 40.1604 59.492 39.789C60.0164 39.3591 60.4387 38.8181 60.7284 38.2051C61.0181 37.5921 61.1679 36.9223 61.1671 36.2443C61.1662 35.5663 61.0147 34.8969 60.7235 34.2846C60.4323 33.6723 60.0086 33.1324 59.4832 32.7039C59.0319 32.3309 58.6953 31.8378 58.5125 31.2817C58.3297 30.7255 58.308 30.1289 58.45 29.5609C58.6148 28.9115 58.6344 28.2338 58.5076 27.576C58.3808 26.9182 58.1105 26.2964 57.7162 25.7548C57.3118 25.1985 56.7897 24.7382 56.1871 24.4067C55.5845 24.0752 54.9162 23.8807 54.2299 23.837C53.6394 23.7972 53.0716 23.594 52.59 23.25C52.1085 22.906 51.7321 22.4348 51.503 21.8891C51.2466 21.2645 50.8569 20.7033 50.3612 20.2447C49.8655 19.7861 49.2758 19.4412 48.6331 19.2341C47.9812 19.0209 47.2906 18.9525 46.6096 19.0336C45.9285 19.1147 45.2734 19.3433 44.6897 19.7036C44.1808 20.0145 43.596 20.179 42.9997 20.179C42.4033 20.179 41.8185 20.0145 41.3096 19.7036C40.726 19.3433 40.0708 19.1147 39.3898 19.0336C38.7087 18.9525 38.0182 19.0209 37.3663 19.2341C36.7238 19.4414 36.1343 19.7864 35.6388 20.2449C35.1433 20.7035 34.7538 21.2645 34.4974 21.8891C34.2676 22.4358 33.8901 22.9077 33.4072 23.2518C32.9242 23.596 32.355 23.7988 31.7632 23.8376C31.0781 23.882 30.4111 24.0769 29.8098 24.4083C29.2085 24.7398 28.6876 25.1997 28.2842 25.7554C27.8892 26.2983 27.6189 26.9216 27.4924 27.5809C27.3659 28.2403 27.3864 28.9194 27.5525 29.5699C27.6929 30.1387 27.6693 30.7356 27.4844 31.2916C27.2996 31.8475 26.9611 32.3398 26.5081 32.7113C25.9837 33.1411 25.5614 33.6821 25.2717 34.2951C24.982 34.9081 24.8322 35.5779 24.833 36.2559C24.8339 36.9339 24.9854 37.6033 25.2766 38.2156C25.5678 38.8279 25.9915 39.3678 26.5169 39.7963C26.9682 40.1692 27.3048 40.6623 27.4876 41.2185C27.6704 41.7747 27.6921 42.3713 27.55 42.9393C27.3853 43.5886 27.3657 44.2663 27.4925 44.9242C27.6193 45.582 27.8896 46.2038 28.2839 46.7454C28.6883 47.3016 29.2104 47.7619 29.813 48.0934C30.4156 48.4249 31.0839 48.6194 31.7702 48.6632C32.3607 48.7029 32.9285 48.9062 33.4101 49.2501C33.8916 49.5941 34.268 50.0653 34.4971 50.611C34.7535 51.2356 35.1431 51.7968 35.6388 52.2554C36.1344 52.7139 36.7241 53.0588 37.3667 53.266C38.0186 53.4792 38.7092 53.5476 39.3902 53.4665C40.0713 53.3854 40.7264 53.1568 41.3101 52.7965C41.8189 52.4858 42.4035 52.3214 42.9997 52.3214C43.5959 52.3214 44.1806 52.4858 44.6894 52.7965L44.6902 52.7969C45.2738 53.1569 45.9288 53.3854 46.6097 53.4665C47.2906 53.5476 47.9813 53.4794 48.6331 53.2665ZM43 48.2501C40.6267 48.2501 38.3066 47.5463 36.3332 46.2277C34.3598 44.9091 32.8217 43.035 31.9135 40.8423C31.0052 38.6496 30.7676 36.2368 31.2306 33.909C31.6936 31.5812 32.8365 29.443 34.5148 27.7648C36.193 26.0866 38.3312 24.9437 40.659 24.4807C42.9867 24.0176 45.3995 24.2553 47.5923 25.1635C49.785 26.0718 51.6591 27.6098 52.9777 29.5832C54.2963 31.5566 55 33.8767 55 36.2501C54.9964 39.4316 53.731 42.4817 51.4813 44.7313C49.2317 46.981 46.1815 48.2464 43 48.2501Z" fill="#786158"/>
</g>
<defs>
<clipPath id="clip0_511_525">
<rect width="48" height="48" fill="white" transform="translate(19 19)"/>
</clipPath>
</defs>
</svg>
