<svg width="159" height="35" viewBox="0 0 159 35" fill="none" xmlns="http://www.w3.org/2000/svg">
<path fill-rule="evenodd" clip-rule="evenodd" d="M0.0544132 34.1635C1.21728 33.6273 1.94479 32.9149 2.23497 32.0284C2.52564 31.1417 2.67131 29.7076 2.67131 27.7271V9.2144C2.67131 9.00818 2.63515 8.81204 2.56231 8.62634C2.48948 8.44083 2.42519 8.27568 2.37159 8.13123C2.31799 7.98677 2.20735 7.85236 2.04426 7.72918C1.88133 7.60544 1.75309 7.50152 1.6625 7.4194C1.57224 7.33728 1.42575 7.25422 1.22666 7.1721C1.02706 7.08998 0.889943 7.02708 0.817603 6.98603C0.745263 6.94553 0.599262 6.88264 0.381256 6.80052C0.163908 6.7184 0.0361699 6.67676 0 6.67676H3.76184C4.45219 6.67676 5.05228 6.96567 5.56096 7.54311C6.06964 8.12054 6.32414 8.80287 6.32414 9.58541V17.7007C8.72302 17.1645 10.8674 15.8236 12.7578 13.6779C14.6475 11.5326 15.6836 9.20136 15.8653 6.68445H19.5181C18.9368 9.36653 17.5556 11.7181 15.3745 13.7397C13.1936 15.7618 10.7402 17.0818 8.01443 17.7007C9.39563 17.7834 10.6678 18.1753 11.8307 18.8769C12.9939 19.5779 14.1117 20.6303 15.1838 22.033C16.2561 23.4361 17.1827 24.8078 17.9641 26.1486C18.7457 27.4899 19.6999 29.2743 20.8266 31.5021C20.8628 31.5437 20.8995 31.6057 20.9356 31.6878C21.5537 32.9672 22.2623 33.7919 23.0621 34.1635H23.0075H22.9531H22.8987H22.8438H22.7892H22.7348H22.6803H22.6257H22.5713H22.5167H22.4623H22.4079H22.3533H22.2989H22.244H22.1896H22.135H22.0806H22.026H21.9716H21.9172H21.8626H21.8082H21.7537H21.6991H21.6442H21.5898H21.5352H21.4808H21.4264H21.3718H21.3174H21.2628H21.2084H21.154H21.0994H21.0445H20.9901H20.9356H20.8811H20.8266H20.772H20.7176H20.6632H20.6086H20.5542H20.4998H20.4447H20.3903H20.3359H20.2813H20.2269H20.1725H20.1179H20.0634H20.009H19.9544H19.9H19.8451H19.7905H19.7361H19.6817H19.6271H19.5727H19.5181H19.4637H19.4093H19.3547H19.3003H19.2453H19.1909H19.1363H19.0819H19.0273H18.9729H18.9185H18.8639H18.8095H18.7551H18.7005H18.6456H18.5912H18.5366H18.4822H18.4277H18.3732H18.3187H18.2642H18.2097H18.1553H18.1007H18.0458H17.9914H17.937H17.8824H17.828H17.7734H17.719H17.6646H17.61H17.5556H17.5011H17.4466H17.3916H17.3372H17.2826H17.2282H17.1738H17.1192H17.0648H16.574C16.7195 34.081 16.8374 33.9779 16.9285 33.8542C17.0193 33.7301 17.083 33.6064 17.1192 33.4826C17.1554 33.3591 17.1827 33.2454 17.2009 33.1426C17.2193 33.0392 17.2092 32.9054 17.1738 32.74C17.1376 32.5749 17.1103 32.441 17.0921 32.3377C17.0737 32.2346 17.0281 32.0902 16.9558 31.9047C16.883 31.7186 16.8192 31.5848 16.7648 31.5021C16.7102 31.4196 16.6378 31.2858 16.5467 31.1003C16.4562 30.9142 16.3922 30.7804 16.356 30.6977C16.2105 30.4088 15.8837 29.7179 15.3745 28.6245C14.866 27.531 14.4752 26.7266 14.2023 26.2106C13.9298 25.6949 13.5298 24.9523 13.0029 23.9825C12.476 23.0128 11.9946 22.2702 11.5583 21.7546C11.1219 21.2391 10.6134 20.6713 10.0314 20.0524C9.45005 19.4339 8.85029 18.9797 8.23228 18.6914C7.61476 18.4025 6.97832 18.2371 6.32414 18.196V27.7271C6.32414 28.7583 6.34239 29.5216 6.37856 30.0169C6.41523 30.5122 6.50582 31.0693 6.65148 31.6878C6.79666 32.3067 7.06003 32.802 7.44179 33.1736C7.82371 33.5446 8.32336 33.8746 8.94104 34.1635H0.0544132Z" fill="black"/>
<path fill-rule="evenodd" clip-rule="evenodd" d="M40.1798 25.6843V14.1111C39.5982 14.9777 38.7533 15.7204 37.6446 16.3395C36.5359 16.9578 35.4822 17.4223 34.4821 17.7318C33.4823 18.0414 32.4738 18.5466 31.456 19.2482C30.4386 19.9495 29.6935 20.8156 29.2208 21.8471C28.3121 23.7454 28.2395 25.6843 29.0028 27.665C29.7662 29.6452 31.0384 30.9036 32.8193 31.4402C34.5641 31.9353 36.1909 31.6052 37.6991 30.4497C39.2077 29.2943 40.0345 27.7062 40.1798 25.6843ZM40.1798 31.8734C40.1798 31.0894 40.0432 30.5837 39.7711 30.3566C39.4985 30.1302 39.0166 30.3473 38.3259 31.0068C36.5089 33.1109 34.3277 34.1632 31.7831 34.1632C30.3296 34.1632 29.012 33.7404 27.8308 32.8944C26.6493 32.0486 25.7592 30.9863 25.1593 29.7072C24.5595 28.4278 24.2687 27.0047 24.2869 25.4366C24.3052 23.8691 24.7137 22.425 25.5136 21.1044C26.1679 20.0734 27.1038 19.2067 28.3214 18.5053C29.5391 17.8038 30.7114 17.3087 31.8377 17.0198C32.9646 16.7314 34.1824 16.4013 35.4911 16.0299C36.7996 15.6585 37.7811 15.2665 38.435 14.8539C39.5255 14.1523 40.0889 13.152 40.1252 11.8521C40.1616 10.5528 39.753 9.41807 38.8988 8.44833C38.0445 7.4786 37.0178 7.03537 35.8182 7.11786C34.3642 7.24159 33.1551 7.97372 32.1924 9.31485C31.2291 10.656 30.3296 12.75 29.4936 15.5967L26.8767 11.6358C28.2576 10.0678 29.6296 8.8509 30.9928 7.98438C32.3559 7.11785 33.9642 6.68448 35.8182 6.68448C36.8359 6.64324 37.7993 6.76717 38.7075 7.05589C39.6164 7.34479 40.4707 7.78803 41.2704 8.38637C42.0697 8.98471 42.7058 9.82009 43.1783 10.893C43.6508 11.966 43.8872 13.2446 43.8872 14.7302V27.7268C43.8872 28.758 43.9053 29.5215 43.9417 30.0166C43.978 30.5117 44.0689 31.0688 44.2144 31.6877C44.3598 32.3062 44.6143 32.8013 44.9773 33.1727C45.3408 33.5441 45.8496 33.8743 46.504 34.1632C46.0315 34.1632 45.4135 34.1632 44.6506 34.1632C43.7417 34.1632 43.0968 34.1632 42.7152 34.1632C42.3334 34.1632 41.9242 34.1323 41.4885 34.0706C41.0523 34.0086 40.7704 33.8849 40.6431 33.6992C40.5159 33.5135 40.4161 33.2866 40.3434 33.0184C40.2707 32.75 40.2162 32.3682 40.1798 31.8734Z" fill="black"/>
<path fill-rule="evenodd" clip-rule="evenodd" d="M48.7392 34.1627C49.9019 33.6262 50.6289 32.9147 50.9197 32.0275C51.2106 31.1402 51.3561 29.7067 51.3561 27.7264V9.22131C51.3561 9.01564 51.3196 8.80923 51.2469 8.603C51.1742 8.39659 51.1104 8.23164 51.0558 8.10772C51.0013 7.98398 50.8928 7.84955 50.7292 7.7051C50.5656 7.56065 50.4383 7.45768 50.3474 7.39572C50.2567 7.33376 50.1112 7.25123 49.9112 7.14802C49.7113 7.04537 49.5749 6.98363 49.502 6.96291C49.4294 6.94238 49.284 6.89049 49.0663 6.808C48.8482 6.72532 48.7209 6.68406 48.6846 6.68406H52.4466C53.1368 6.68406 53.7365 6.973 54.2454 7.55081C54.7544 8.12843 55.0087 8.80923 55.0087 9.59271V14.2964C55.2996 12.4812 55.9181 10.9546 56.8628 9.71665C57.8078 8.4791 58.8802 7.62262 60.0793 7.14802C61.2789 6.67416 62.5419 6.5398 63.8687 6.74603C65.195 6.95244 66.4036 7.44756 67.4941 8.23159C68.5846 9.01563 69.4933 10.1498 70.2198 11.6354C70.947 13.1204 71.3105 14.8327 71.3105 16.7717V27.7264C71.3105 28.7575 71.3204 29.521 71.338 30.0162C71.356 30.5113 71.4465 31.0684 71.6101 31.6872C71.7737 32.3057 72.0375 32.8009 72.401 33.1723C72.7645 33.5437 73.2548 33.8738 73.8726 34.1627H64.9862C65.6406 33.8738 66.1495 33.5437 66.5126 33.1723C66.8761 32.8009 67.1398 32.3057 67.3034 31.6872C67.467 31.0684 67.5579 30.5113 67.5761 30.0162C67.5942 29.521 67.6031 28.7575 67.6031 27.7264V16.4008C67.6031 13.2648 66.5489 11.099 64.441 9.90232C62.3331 8.70602 60.2341 8.77808 58.1438 10.1192C56.0542 11.4598 55.0087 13.6568 55.0087 16.7105V27.7264C55.0087 28.7575 55.027 29.521 55.0633 30.0162C55.0996 30.5113 55.1906 31.0684 55.3359 31.6872C55.4814 32.3057 55.7451 32.8009 56.1269 33.1723C56.5085 33.5437 57.0081 33.8738 57.6261 34.1627H48.7392Z" fill="black"/>
<path fill-rule="evenodd" clip-rule="evenodd" d="M86.8509 34.1636H83.0891L75.0746 9.22277C74.6021 7.81949 73.7117 6.97409 72.4033 6.68518H76.1652C76.8193 6.68518 77.3283 6.902 77.6914 7.33499C78.0545 7.76741 78.3572 8.42121 78.6185 9.28457L85.4669 31.9119L91.6786 8.20321C91.7741 7.83891 91.6968 7.53324 91.5152 7.30611C91.3333 7.07898 91.0596 6.96546 90.6974 6.96546H90.534V6.65625H94.9706V7.97927H94.6983C94.0078 7.97927 93.5274 8.45162 93.2808 9.40269L86.8509 34.1636Z" fill="black"/>
<path fill-rule="evenodd" clip-rule="evenodd" d="M101.135 0C101.68 0 102.144 0.227128 102.525 0.681015C102.907 1.1349 103.098 1.67072 103.098 2.28978C103.098 2.90865 102.907 3.43459 102.525 3.86795C102.144 4.30112 101.671 4.51798 101.108 4.51798C100.544 4.51798 100.071 4.30112 99.6899 3.86795C99.3081 3.43459 99.1176 2.90865 99.1176 2.28978C99.1176 1.95963 99.172 1.66063 99.2812 1.39244C99.3902 1.12426 99.5357 0.887243 99.7173 0.681015C99.8992 0.474601 100.108 0.309598 100.344 0.185674C100.58 0.0619379 100.844 0 101.135 0ZM105.714 34.1625H96.8279C97.9907 33.6259 98.7177 32.9145 99.0086 32.0273C99.2992 31.14 99.4448 29.7065 99.4448 27.7262V9.22107C99.4448 9.01541 99.4084 8.80899 99.3356 8.60277C99.2629 8.39635 99.1991 8.23141 99.1445 8.10748C99.0901 7.98375 98.9814 7.84932 98.8179 7.70486C98.6543 7.56041 98.527 7.45744 98.4363 7.39548C98.3453 7.33352 98.1999 7.25099 97.9999 7.14778C97.8 7.04514 97.6635 6.9834 97.5909 6.96268C97.518 6.94215 97.3727 6.89025 97.155 6.80776C96.937 6.72508 96.8098 6.68383 96.7734 6.68383H100.535C101.007 6.68383 101.435 6.81818 101.816 7.08656C102.198 7.35419 102.507 7.70488 102.743 8.13824C102.979 8.57141 103.098 9.0561 103.098 9.59248V27.7262C103.098 28.7573 103.116 29.5208 103.152 30.0159C103.188 30.5111 103.279 31.0681 103.425 31.687C103.57 32.3055 103.833 32.8007 104.215 33.1721C104.597 33.5435 105.096 33.8736 105.714 34.1625Z" fill="black"/>
<path fill-rule="evenodd" clip-rule="evenodd" d="M119.345 6.68262C121.453 6.68262 123.389 7.33231 125.151 8.6322C126.914 9.93209 128.286 11.6752 129.267 13.8618H125.56C125.161 11.9229 124.352 10.324 123.134 9.06552C121.917 7.80687 120.654 7.17796 119.345 7.17796C118.255 7.17796 117.255 7.62119 116.346 8.50844C115.438 9.39549 114.72 10.5097 114.193 11.8502C113.666 13.1914 113.257 14.5531 112.966 15.9351C112.675 17.3173 112.512 18.586 112.475 19.7414C112.475 21.6391 112.694 23.444 113.13 25.1565C113.566 26.8685 114.32 28.4159 115.392 29.7982C116.465 31.1801 117.782 32.0572 119.345 32.428C122.798 33.1708 126.033 31.7685 129.049 28.2202C128.032 30.1591 126.587 31.6341 124.715 32.6451C122.843 33.6561 120.981 34.1613 119.127 34.1613C116.037 34.1613 113.429 32.8201 111.303 30.1384C109.177 27.4567 108.114 24.2181 108.114 20.4222C108.114 16.6263 109.214 13.3871 111.412 10.7054C113.611 8.02373 116.255 6.68262 119.345 6.68262Z" fill="black"/>
<path fill-rule="evenodd" clip-rule="evenodd" d="M147.041 25.6843V14.1111C146.459 14.9777 145.614 15.7204 144.505 16.3395C143.397 16.9578 142.343 17.4223 141.343 17.7318C140.344 18.0414 139.335 18.5466 138.317 19.2482C137.3 19.9495 136.555 20.8156 136.082 21.8471C135.173 23.7454 135.101 25.6843 135.864 27.665C136.628 29.6452 137.9 30.9036 139.681 31.4402C141.425 31.9353 143.052 31.6052 144.56 30.4497C146.069 29.2943 146.895 27.7062 147.041 25.6843ZM147.041 31.8734C147.041 31.0894 146.904 30.5837 146.632 30.3566C146.359 30.1302 145.877 30.3473 145.187 31.0068C143.37 33.1109 141.189 34.1632 138.644 34.1632C137.191 34.1632 135.874 33.7404 134.692 32.8944C133.511 32.0486 132.621 30.9863 132.021 29.7072C131.421 28.4278 131.13 27.0047 131.148 25.4366C131.167 23.8691 131.575 22.425 132.375 21.1044C133.029 20.0734 133.965 19.2067 135.183 18.5053C136.4 17.8038 137.573 17.3087 138.699 17.0198C139.826 16.7314 141.044 16.4013 142.352 16.0299C143.661 15.6585 144.642 15.2665 145.296 14.8539C146.386 14.1523 146.95 13.152 146.986 11.8521C147.023 10.5528 146.614 9.41807 145.76 8.44833C144.905 7.4786 143.879 7.03537 142.679 7.11786C141.226 7.24159 140.017 7.97372 139.054 9.31485C138.09 10.656 137.191 12.75 136.355 15.5967L133.738 11.6358C135.119 10.0678 136.491 8.8509 137.854 7.98438C139.217 7.11785 140.826 6.68448 142.679 6.68448C143.697 6.64324 144.66 6.76717 145.569 7.05589C146.477 7.34479 147.332 7.78803 148.131 8.38637C148.931 8.98471 149.567 9.82009 150.039 10.893C150.512 11.966 150.748 13.2446 150.748 14.7302V27.7268C150.748 28.758 150.766 29.5215 150.803 30.0166C150.839 30.5117 150.93 31.0688 151.075 31.6877C151.221 32.3062 151.475 32.8013 151.838 33.1727C152.202 33.5441 152.711 33.8743 153.365 34.1632C152.892 34.1632 152.274 34.1632 151.511 34.1632C150.603 34.1632 149.958 34.1632 149.576 34.1632C149.194 34.1632 148.785 34.1323 148.349 34.0706C147.913 34.0086 147.631 33.8849 147.504 33.6992C147.377 33.5135 147.277 33.2866 147.204 33.0184C147.132 32.75 147.077 32.3682 147.041 31.8734Z" fill="black"/>
<path fill-rule="evenodd" clip-rule="evenodd" d="M156.432 6.49316C157.85 6.49316 159 7.79845 159 9.40891C159 11.0192 157.85 12.3247 156.432 12.3247C155.013 12.3247 153.863 11.0192 153.863 9.40891C153.863 7.79845 155.013 6.49316 156.432 6.49316ZM156.432 6.99546C157.606 6.99546 158.557 8.07582 158.557 9.40891C158.557 10.7418 157.606 11.8221 156.432 11.8221C155.257 11.8221 154.306 10.7418 154.306 9.40891C154.306 8.07582 155.257 6.99546 156.432 6.99546Z" fill="black"/>
<path fill-rule="evenodd" clip-rule="evenodd" d="M156.904 11.0608L156.234 9.7393H155.87V11.0608H155.393V7.75684H156.398C156.621 7.75684 156.81 7.80105 156.965 7.8899C157.12 7.97856 157.236 8.09746 157.313 8.2466C157.389 8.39555 157.428 8.56166 157.428 8.74571C157.428 8.96111 157.373 9.15693 157.262 9.33276C157.152 9.50859 156.982 9.62822 156.754 9.69168L157.474 11.0608H156.904ZM155.87 9.30662H156.398C156.576 9.30662 156.711 9.25582 156.802 9.15447C156.892 9.05312 156.938 8.91668 156.938 8.74571C156.938 8.57454 156.893 8.44051 156.804 8.34401C156.714 8.24732 156.579 8.19898 156.398 8.19898H155.87V9.30662Z" fill="black"/>
</svg>
