<svg width="288" height="222" viewBox="0 0 288 222" fill="none" xmlns="http://www.w3.org/2000/svg">
<path d="M62.1116 117.764L62.3598 117.512L62.1116 117.26L118.666 59.6809L140.613 82.0263L105.761 117.512L140.613 153.004L118.666 175.355L62.1116 117.764ZM225.887 117.763L225.639 117.511L225.887 117.258L136.284 26.031C102.98 -7.87968 48.9749 -8.65382 14.7119 23.6801L20.477 29.5482C42.6422 9.48942 76.8982 10.2642 98.1293 31.8769L182.237 117.511L111.376 189.675C89.3751 212.078 53.313 212.095 31.292 189.675C9.27177 167.254 9.26962 130.558 31.2899 108.135L50.7684 88.3034L28.8199 65.9538L25.548 69.288C-8.5187 103.995 -8.51379 160.837 25.5494 195.519C59.6085 230.196 115.458 230.223 149.531 195.521L225.887 117.763ZM143.999 151.807C145.374 143.434 149.223 134.508 155.359 129.187C160.584 122.94 169.351 119.021 177.576 117.621C169.351 116.222 160.584 112.301 155.359 106.054C149.223 100.734 145.374 91.8079 143.999 83.4341C142.624 91.8065 138.775 100.735 132.639 106.054C127.416 112.301 118.647 116.22 110.421 117.62C118.647 119.021 127.416 122.94 132.639 129.186C138.775 134.505 142.624 143.434 143.999 151.807ZM147.386 30.4383L151.715 26.031C185.018 -7.87825 239.026 -8.65382 273.286 23.6801L267.523 29.5498C245.358 9.48808 211.101 10.2642 189.869 31.8769L169.334 52.7859L147.386 30.4383ZM169.334 182.252L176.623 189.675C198.625 212.077 234.688 212.093 256.708 189.675C278.729 167.254 278.731 130.558 256.709 108.135L237.231 88.3018L259.179 65.9538L262.454 69.288C296.519 103.995 296.513 160.838 262.45 195.519C231.352 227.181 182.09 229.95 147.823 203.778C149.567 202.252 151.267 200.649 152.918 198.967L169.334 182.252Z" fill="url(#paint0_linear_336_6613)" fill-opacity="0.15"/>
<defs>
<linearGradient id="paint0_linear_336_6613" x1="144" y1="0" x2="144" y2="221.538" gradientUnits="userSpaceOnUse">
<stop stop-color="#C99F86"/>
<stop offset="0.485" stop-color="#FCCFB0"/>
<stop offset="1" stop-color="#C99F86"/>
</linearGradient>
</defs>
</svg>
