<svg width="28" height="30" viewBox="0 0 28 30" fill="none" xmlns="http://www.w3.org/2000/svg">
<path d="M14.1865 13.6611C14.0698 13.6493 13.9298 13.6493 13.8015 13.6611C11.0248 13.5664 8.81982 11.2566 8.81982 8.41389C8.81982 5.5119 11.1298 3.15479 13.9998 3.15479C16.8582 3.15479 19.1798 5.5119 19.1798 8.41389C19.1682 11.2566 16.9632 13.5664 14.1865 13.6611Z" stroke="#2B2B2B" stroke-width="1.8" stroke-linecap="round" stroke-linejoin="round"/>
<path d="M8.35334 18.0324C5.53001 19.9513 5.53001 23.0783 8.35334 24.9853C11.5617 27.1648 16.8233 27.1648 20.0317 24.9853C22.855 23.0665 22.855 19.9395 20.0317 18.0324C16.835 15.8648 11.5733 15.8648 8.35334 18.0324Z" stroke="#2B2B2B" stroke-width="1.8" stroke-linecap="round" stroke-linejoin="round"/>
</svg>
